# xmcd CD database file
#
# Track frame offsets:
#	150
#	13112
#	31597
#	56760
#	78271
#	93330
#	107927
#	130463
#	143268
#	158769
#	180217
#	201929
#	218523
#	243342
#	257846
#
# Disc length: 3715 seconds
#
# Revision: 0
# Processed by: cddbd v1.5.2PL0 Copyright (c) Steve Scherf et al.
# Submitted via: CDex 1.51
#
DISCID=bc0e810f
DTITLE=Chicago Swing Rats (CH) - ASmooth One
DYEAR=2011
DGENRE=Jazz
TTITLE0=Clayton Place
TTITLE1=Oh, Baby!
TTITLE2=Makin' Whoopee!
TTITLE3=After You've Gone
TTITLE4=Blue Mizz
TTITLE5=Lulu's Back In Town
TTITLE6=I'm Confessin' That I Love You
TTITLE7=Wabash Blues
TTITLE8=Perdido
TTITLE9=A Smooth One
TTITLE10=Coquette
TTITLE11=Moten Swing
TTITLE12=Do You Know What It Means To Miss New Orleans
TTITLE13=Jive At Five
TTITLE14=Chicago
EXTD=YEAR: 2011
EXTT0=
EXTT1=
EXTT2=
EXTT3=
EXTT4=
EXTT5=
EXTT6=
EXTT7=
EXTT8=
EXTT9=
EXTT10=
EXTT11=
EXTT12=
EXTT13=
EXTT14=
PLAYORDER=
